<?xml version="1.0" encoding="UTF-8" standalone="no"?>
<svg width="200" height="38" viewBox="0 0 200 38" fill="none" xmlns="http://www.w3.org/2000/svg" alt="ElixirConf" role="img" class="md:w-36 xl:w-auto">
  <path d="M173.898 1.7732C174.262 1.97757 174.564 2.27655 174.77 2.63803C174.982 3.0098 175.091 3.43086 175.086 3.85825C175.091 4.28862 174.979 4.7123 174.763 5.08534C174.553 5.45083 174.248 5.75409 173.881 5.9638C173.505 6.17443 173.081 6.28512 172.649 6.28512C172.218 6.28512 171.793 6.17443 171.418 5.9638C171.053 5.75449 170.751 5.45244 170.543 5.08877C170.333 4.71709 170.222 4.29808 170.222 3.87193C170.222 3.44578 170.333 3.02678 170.543 2.65509C170.751 2.29077 171.055 1.98861 171.421 1.78001C171.799 1.5705 172.225 1.45995 172.659 1.45875C173.092 1.45756 173.518 1.56578 173.898 1.7732ZM173.75 5.74168C174.08 5.54939 174.354 5.27397 174.542 4.94327C174.731 4.61257 174.828 4.2383 174.825 3.85828C174.83 3.47639 174.732 3.10007 174.542 2.76789C174.358 2.44627 174.09 2.17952 173.767 1.99539C173.427 1.80875 173.045 1.71111 172.657 1.71171C172.269 1.71231 171.887 1.81112 171.548 1.9988C171.221 2.18506 170.949 2.45544 170.763 2.78157C170.576 3.11488 170.477 3.49024 170.477 3.87195C170.477 4.25365 170.576 4.62901 170.763 4.96232C170.949 5.2878 171.219 5.55807 171.545 5.74509C171.881 5.93387 172.261 6.0328 172.648 6.0322C173.034 6.03161 173.414 5.9315 173.75 5.74168ZM173.719 3.94372C173.604 4.09681 173.444 4.21041 173.261 4.26857L173.908 5.25302H173.536L172.937 4.33011C172.884 4.33543 172.831 4.33772 172.778 4.33695H172.062V5.25302H171.704V2.49103H172.778C173.068 2.4751 173.354 2.56238 173.585 2.73712C173.682 2.81882 173.76 2.92172 173.811 3.03788C173.863 3.15404 173.886 3.28035 173.881 3.40707C173.886 3.59858 173.83 3.78675 173.719 3.94372ZM173.326 3.87196C173.394 3.81551 173.448 3.74408 173.483 3.66338C173.518 3.58267 173.534 3.49491 173.529 3.40707C173.534 3.32076 173.518 3.23458 173.483 3.15557C173.447 3.07656 173.394 3.00696 173.326 2.95246C173.161 2.83631 172.96 2.77964 172.758 2.79182H172.055V4.036H172.758C172.961 4.04829 173.161 3.99031 173.326 3.87196Z" fill="#3A1D4C"></path>
  <path d="M19.9581 25.2466V29.9963H0V4.42083H19.4794V9.17059H5.92856V14.7241H17.896V19.3277H5.92856V25.2466H19.9581Z" fill="#3A1D4C"></path>
  <path d="M22.7563 2.88633H28.5008V29.9963H22.7563V2.88633Z" fill="#3A1D4C"></path>
  <path d="M32.5881 6.68612C32.2677 6.40181 32.0131 6.05222 31.8415 5.66126C31.6699 5.2703 31.5854 4.84718 31.5938 4.42083C31.5855 3.99451 31.6701 3.57144 31.8416 3.1805C32.0132 2.78956 32.2678 2.43997 32.5881 2.1556C33.2951 1.53044 34.2195 1.20285 35.1657 1.24219C36.1055 1.20205 37.026 1.51523 37.7433 2.11915C38.062 2.38889 38.3165 2.72542 38.4884 3.10448C38.6603 3.48354 38.7454 3.89571 38.7375 4.31131C38.7499 4.75164 38.6676 5.18954 38.4962 5.59588C38.3248 6.00221 38.0681 6.36767 37.7433 6.66792C37.0416 7.30369 36.1151 7.63856 35.1657 7.5996C34.2195 7.6392 33.2949 7.31154 32.5881 6.68612ZM32.2935 10.3398H38.0379V29.9963H32.2935V10.3398Z" fill="#3A1D4C"></path>
  <path d="M54.4237 29.9963L50.0785 23.9679L45.5861 29.9963H39.3262L46.9485 20.095L39.5839 10.3398H46.028L50.2258 16.076L54.5342 10.3398H60.6469L53.2823 19.9487L60.9414 29.9961L54.4237 29.9963Z" fill="#3A1D4C"></path>
  <path d="M62.4875 6.68612C62.1671 6.40181 61.9125 6.05223 61.7409 5.66127C61.5693 5.2703 61.4848 4.84718 61.4932 4.42083C61.4849 3.99451 61.5695 3.57143 61.7411 3.18049C61.9126 2.78955 62.1672 2.43996 62.4875 2.1556C63.1944 1.53045 64.1189 1.20285 65.065 1.24219C66.0049 1.20205 66.9254 1.51523 67.6427 2.11915C67.9614 2.38889 68.2159 2.72539 68.3878 3.10443C68.5597 3.48346 68.6447 3.8956 68.6368 4.31116C68.6492 4.75149 68.567 5.18939 68.3955 5.59572C68.2241 6.00205 67.9675 6.36751 67.6426 6.66777C66.9409 7.30353 66.0144 7.63841 65.065 7.59945C64.1188 7.63907 63.1943 7.31147 62.4875 6.68612ZM62.1928 10.3398H67.9373V29.9963H62.1928V10.3398Z" fill="#3A1D4C"></path>
  <path d="M79.9967 10.7781C81.278 10.2694 82.6491 10.021 84.0289 10.0474V15.3087C83.3903 15.2602 82.9607 15.2358 82.7401 15.2356C81.0952 15.2356 79.8063 15.6923 78.8737 16.6057C77.9404 17.5192 77.474 18.8893 77.4744 20.7161V29.9963H71.73V10.3398H77.2166V12.9338C77.921 11.9705 78.8844 11.2234 79.9967 10.7781Z" fill="#3A1D4C"></path>
  <path d="M90.9333 28.7358C88.8599 27.6503 87.1273 26.0198 85.9254 24.0227C84.6961 21.9616 84.0653 19.6033 84.1026 17.2086C84.0653 14.8139 84.6962 12.4557 85.9254 10.3946C87.1273 8.39742 88.8599 6.76686 90.9333 5.6814C92.9709 4.66162 95.205 4.0867 97.4852 3.99531C99.7655 3.90392 102.039 4.29819 104.153 5.15159C105.915 5.90014 107.473 7.05205 108.7 8.51304L104.871 12.0204C103.128 10.0235 100.967 9.02479 98.39 9.02441C96.8993 8.99848 95.4274 9.3573 94.1185 10.0657C92.8861 10.7406 91.8712 11.7476 91.1911 12.9705C90.4772 14.2692 90.1156 15.7296 90.1416 17.2087C90.1155 18.6878 90.4771 20.1482 91.1911 21.4469C91.8712 22.6697 92.8861 23.6767 94.1185 24.3514C95.4274 25.0599 96.8993 25.4187 98.39 25.3927C100.968 25.3927 103.128 24.3819 104.871 22.3602L108.7 25.8677C107.478 27.35 105.911 28.516 104.134 29.2656C102.212 30.0657 100.143 30.4637 98.0587 30.4348C95.5776 30.4699 93.1274 29.8857 90.9333 28.7358Z" fill="#3A1D4C"></path>
  <path d="M113.874 28.9916C112.267 28.1736 110.922 26.9274 109.989 25.3927C109.044 23.8135 108.559 22.0046 108.59 20.168C108.559 18.3315 109.044 16.5227 109.989 14.9433C110.922 13.4089 112.267 12.1626 113.874 11.3445C115.618 10.4913 117.536 10.0475 119.48 10.0475C121.424 10.0475 123.343 10.4913 125.086 11.3445C126.685 12.1669 128.024 13.4126 128.953 14.9433C129.898 16.5228 130.382 18.3315 130.352 20.168C130.382 22.0046 129.898 23.8134 128.953 25.3927C128.024 26.9237 126.686 28.1693 125.086 28.9916C123.343 29.8448 121.424 30.2886 119.48 30.2886C117.536 30.2886 115.618 29.8448 113.874 28.9916ZM123.116 24.1323C124.061 23.1458 124.534 21.8243 124.534 20.168C124.534 18.5119 124.062 17.1905 123.116 16.2038C122.652 15.717 122.088 15.3334 121.463 15.0783C120.838 14.8233 120.165 14.7026 119.489 14.7241C118.811 14.7037 118.136 14.8248 117.508 15.0797C116.88 15.3346 116.313 15.7176 115.844 16.2038C114.886 17.1903 114.408 18.5117 114.408 20.168C114.408 21.8247 114.887 23.1461 115.844 24.1323C116.313 24.6185 116.88 25.0014 117.508 25.2563C118.136 25.5112 118.811 25.6324 119.489 25.6119C120.165 25.6335 120.838 25.5128 121.463 25.2577C122.088 25.0027 122.652 24.6191 123.116 24.1323Z" fill="#3A1D4C"></path>
  <path d="M150.623 12.2396C152.133 13.7011 152.888 15.8689 152.888 18.7431V29.9963H147.144V19.62C147.144 18.0615 146.8 16.8984 146.113 16.1308C145.425 15.3635 144.431 14.9798 143.13 14.9799C141.681 14.9799 140.527 15.4244 139.668 16.3135C138.809 17.2029 138.379 18.5243 138.38 20.2777V29.9963H132.635V10.3398H138.122V12.6416C138.908 11.7966 139.877 11.1406 140.957 10.7234C142.142 10.2626 143.404 10.0331 144.676 10.0475C147.131 10.0475 149.113 10.7782 150.623 12.2396Z" fill="#3A1D4C"></path>
  <path d="M162.83 10.7781H167.912V15.1625H162.977V29.9963H157.233V15.1625H154.177V10.7781H157.233V9.90114C157.233 7.66046 157.902 5.88236 159.24 4.56686C160.578 3.25136 162.462 2.59375 164.892 2.59403C165.716 2.59009 166.538 2.68205 167.341 2.86804C168.027 3.01484 168.681 3.28078 169.274 3.6536L167.764 7.78219C167.084 7.3142 166.272 7.07126 165.445 7.08799C163.701 7.08799 162.83 8.03794 162.83 9.93785L162.83 10.7781Z" fill="#3A1D4C"></path>
  <path d="M177.005 24.9482C174.418 23.0291 172.873 19.8673 172.873 16.4906C172.873 16.3258 172.879 16.1552 172.892 15.9835C173.013 14.3296 173.822 11.4019 176.99 6.84705C178.5 4.65851 180.197 2.60302 182.062 0.703335L182.452 0.333309L182.915 0.854297C184.029 2.10459 186.986 5.42545 189.225 9.0658L188.339 9.6019C186.303 6.29033 183.642 3.23045 182.396 1.82627C180.159 4.12272 174.275 11.2849 173.926 16.058C173.916 16.2051 173.91 16.3507 173.91 16.4907C173.91 19.5446 175.299 22.3982 177.626 24.124L177.005 24.9482Z" fill="#AD3989"></path>
  <path d="M191.173 29.6389V28.6097C195.33 28.6097 198.711 24.9363 198.711 20.4211C198.711 18.3908 197.39 14.4927 191.15 7.41705C189.726 8.89034 186.529 12.6706 184.789 16.3141L183.852 15.8734C185.834 11.7219 189.649 7.39788 190.814 6.29249L191.205 5.92246L191.657 6.43045C197.026 12.4601 199.748 17.1672 199.748 20.421C199.748 25.5038 195.901 29.6389 191.173 29.6389Z" fill="#F9D759"></path>
  <path d="M183.643 37.525C179.182 37.525 175.552 33.6246 175.552 28.8304C175.552 28.6904 175.558 28.5453 175.568 28.3991C175.717 26.3663 176.878 23.7742 179.02 20.6947C180.29 18.8545 181.717 17.1261 183.285 15.5289L183.675 15.1588L184.122 15.6605C189.173 21.3335 191.735 25.7645 191.735 28.8304C191.735 33.6246 188.105 37.525 183.643 37.525ZM183.621 16.6538C182.26 18.1028 181.007 19.6487 179.874 21.2792C177.867 24.1644 176.736 26.6521 176.603 28.4734C176.594 28.5949 176.589 28.715 176.589 28.8303C176.589 33.057 179.754 36.4957 183.643 36.4957C187.533 36.4957 190.697 33.057 190.697 28.8303C190.697 26.9299 189.461 23.2813 183.621 16.6538Z" fill="#9AD7D8"></path>
</svg>
